# xmcd CD database file
#
# Track frame offsets:
#	150
#	17250
#	37050
#	51825
#	69225
#	89475
#	112350
#	135450
#	155325
#	172125
#	193350
#	212025
#	232275
#	254475
#	271650
#
# Disc length: 3918 seconds
#
# Revision: 1
# Processed by: cddbd v1.5.1PL2 Copyright (c) Steve Scherf et al.
# Submitted via: freeDBTagger 0.8.2.1
#
DISCID=e00f4c0f
DTITLE=Do As Infinity - Do The Best“Great Supporters Selection” [CD1]
DYEAR=2006
DGENRE=misc
TTITLE0=あいのうた
TTITLE1=陽のあたる坂道
TTITLE2=本日ハ晴天ナリ
TTITLE3=SUMMER DAYS
TTITLE4=柊
TTITLE5=Yesterday and Today
TTITLE6=科学の夜
TTITLE7=We are.
TTITLE8=遠雷
TTITLE9=Oasis
TTITLE10=冒険者たち
TTITLE11=遠くまで
TTITLE12=空想旅団
TTITLE13=I miss you?
TTITLE14=Field of dreams
EXTD=
EXTT0=
EXTT1=
EXTT2=
EXTT3=
EXTT4=
EXTT5=
EXTT6=
EXTT7=
EXTT8=
EXTT9=
EXTT10=
EXTT11=
EXTT12=
EXTT13=
EXTT14=
PLAYORDER=
